<mxfile host="app.diagrams.net" modified="2024-06-24T13:13:43.659Z" agent="Mozilla/5.0 (X11; Linux x86_64) AppleWebKit/537.36 (KHTML, like Gecko) Chrome/126.0.0.0 Safari/537.36" version="24.5.5" etag="ZaVi6CyS90VUylwanDZo" type="github">
  <diagram name="Page-1" id="YRNtaUdtWaeOzfIW47Cl">
    <mxGraphModel>
      <root>
        <mxCell id="0" />
        <mxCell id="1" parent="0" />
      </root>
    </mxGraphModel>
  </diagram>
</mxfile>
